<svg xmlns="http://www.w3.org/2000/svg" xmlns:xlink="http://www.w3.org/1999/xlink" version="1.1" data-diagram-type="DESCRIPTION" style="width:1563px;height:580px;background:#F7FAFC;" width="1563px" height="580px" viewBox="0 0 1563 580" zoomAndPan="magnify" preserveAspectRatio="none" contentStyleType="text/css"><?plantuml 1.2026.8?><defs/><g font-family="sans-serif" lengthAdjust="spacing"><rect x="0" y="0" width="1563" height="580" fill="#F7FAFC" style="stroke:none;"/><g class="title" data-source-line="3"><text x="615.613" y="22.674" fill="#000" font-size="14" textLength="325.192" font-weight="700" font-family="Arial">Molinex - Design-Level Event Storming Overview</text></g><!--entity commercial--><g class="entity" data-qualified-name="commercial" id="ent0001" data-source-line="6"><rect x="44.5" y="43.641" width="166.675" height="49.047" fill="#EDF5FC" style="stroke:#486581;stroke-width:0.5;" rx="4.5" ry="4.5"/><text x="54.5" y="65.409" fill="#102A43" font-size="13" textLength="146.675" font-family="Arial">Commercial Engagement</text><text x="54.5" y="79.933" fill="#102A43" font-size="13" textLength="107.688" font-family="Arial">[Bounded Context]</text></g><!--entity iam--><g class="entity" data-qualified-name="iam" id="ent0002" data-source-line="7"><rect x="287" y="43.641" width="212.22" height="49.047" fill="#EDF5FC" style="stroke:#486581;stroke-width:0.5;" rx="4.5" ry="4.5"/><text x="297" y="65.409" fill="#102A43" font-size="13" textLength="192.22" font-family="Arial">Identity and Access Management</text><text x="297" y="79.933" fill="#102A43" font-size="13" textLength="107.688" font-family="Arial">[Bounded Context]</text></g><!--entity production--><g class="entity" data-qualified-name="production" id="ent0003" data-source-line="9"><rect x="7" y="160.141" width="161.642" height="49.047" fill="#EDF5FC" style="stroke:#486581;stroke-width:0.5;" rx="4.5" ry="4.5"/><text x="17" y="181.909" fill="#102A43" font-size="13" textLength="141.642" font-family="Arial">Production Management</text><text x="17" y="196.433" fill="#102A43" font-size="13" textLength="107.688" font-family="Arial">[Bounded Context]</text></g><!--entity event_production--><g class="entity" data-qualified-name="event_production" id="ent0004" data-source-line="10"><rect x="204.5" y="152.641" width="150.793" height="63.57" fill="#FFB26B" style="stroke:#486581;stroke-width:0.5;" rx="4.5" ry="4.5"/><text x="214.5" y="174.409" fill="#102A43" font-size="13" textLength="130.793" font-family="Arial">Production Information</text><text x="214.5" y="188.933" fill="#102A43" font-size="13" textLength="116.353" font-family="Arial">Recorded / Updated</text><text x="214.5" y="203.456" fill="#102A43" font-size="13" textLength="95.374" font-family="Arial">[Domain Events]</text></g><!--entity quality--><g class="entity" data-qualified-name="quality" id="ent0005" data-source-line="11"><rect x="391" y="160.141" width="163.8" height="49.047" fill="#EDF5FC" style="stroke:#486581;stroke-width:0.5;" rx="4.5" ry="4.5"/><text x="401" y="181.909" fill="#102A43" font-size="13" textLength="143.8" font-family="Arial">Quality and Yield Control</text><text x="401" y="196.433" fill="#102A43" font-size="13" textLength="107.688" font-family="Arial">[Bounded Context]</text></g><!--entity event_deviation--><g class="entity" data-qualified-name="event_deviation" id="ent0006" data-source-line="12"><rect x="590.5" y="152.641" width="130.57" height="63.57" fill="#FFB26B" style="stroke:#486581;stroke-width:0.5;" rx="4.5" ry="4.5"/><text x="600.5" y="174.409" fill="#102A43" font-size="13" textLength="88.15" font-family="Arial">Quality or Yield</text><text x="600.5" y="188.933" fill="#102A43" font-size="13" textLength="110.57" font-family="Arial">Deviation Identified</text><text x="600.5" y="203.456" fill="#102A43" font-size="13" textLength="88.874" font-family="Arial">[Domain Event]</text></g><!--entity intelligence--><g class="entity" data-qualified-name="intelligence" id="ent0007" data-source-line="13"><rect x="756.5" y="160.141" width="156.589" height="49.047" fill="#EDF5FC" style="stroke:#486581;stroke-width:0.5;" rx="4.5" ry="4.5"/><text x="766.5" y="181.909" fill="#102A43" font-size="13" textLength="136.589" font-family="Arial">Operational Intelligence</text><text x="766.5" y="196.433" fill="#102A43" font-size="13" textLength="107.688" font-family="Arial">[Bounded Context]</text></g><!--entity event_anomaly--><g class="entity" data-qualified-name="event_anomaly" id="ent0008" data-source-line="14"><rect x="948.5" y="152.641" width="141.399" height="63.57" fill="#FFB26B" style="stroke:#486581;stroke-width:0.5;" rx="4.5" ry="4.5"/><text x="958.5" y="174.409" fill="#102A43" font-size="13" textLength="121.399" font-family="Arial">Operational Anomaly</text><text x="958.5" y="188.933" fill="#102A43" font-size="13" textLength="52.032" font-family="Arial">Detected</text><text x="958.5" y="203.456" fill="#102A43" font-size="13" textLength="88.874" font-family="Arial">[Domain Event]</text></g><!--entity maintenance--><g class="entity" data-qualified-name="maintenance" id="ent0009" data-source-line="15"><rect x="1124.5" y="160.141" width="235.357" height="49.047" fill="#EDF5FC" style="stroke:#486581;stroke-width:0.5;" rx="4.5" ry="4.5"/><text x="1134.5" y="181.909" fill="#102A43" font-size="13" textLength="215.357" font-family="Arial">Asset and Maintenance Management</text><text x="1134.5" y="196.433" fill="#102A43" font-size="13" textLength="107.688" font-family="Arial">[Bounded Context]</text></g><!--entity event_maintenance--><g class="entity" data-qualified-name="event_maintenance" id="ent0010" data-source-line="16"><rect x="1395" y="160.141" width="154.418" height="49.047" fill="#FFB26B" style="stroke:#486581;stroke-width:0.5;" rx="4.5" ry="4.5"/><text x="1405" y="181.909" fill="#102A43" font-size="13" textLength="134.418" font-family="Arial">Maintenance Recorded</text><text x="1405" y="196.433" fill="#102A43" font-size="13" textLength="95.374" font-family="Arial">[Domain Events]</text></g><!--entity external_sensor--><g class="entity" data-qualified-name="external_sensor" id="ent0011" data-source-line="18"><rect x="750.5" y="43.641" width="168.827" height="49.047" fill="#F5A3D7" style="stroke:#486581;stroke-width:0.5;" rx="4.5" ry="4.5"/><text x="760.5" y="65.409" fill="#102A43" font-size="13" textLength="148.827" font-family="Arial">Rice Mill Sensor Gateway</text><text x="760.5" y="79.933" fill="#102A43" font-size="13" textLength="101.867" font-family="Arial">[External System]</text></g><!--entity event_alert--><g class="entity" data-qualified-name="event_alert" id="ent0012" data-source-line="19"><rect x="791" y="276.641" width="117.551" height="63.57" fill="#FFB26B" style="stroke:#486581;stroke-width:0.5;" rx="4.5" ry="4.5"/><text x="801" y="298.409" fill="#102A43" font-size="13" textLength="97.551" font-family="Arial">Operational Alert</text><text x="801" y="312.933" fill="#102A43" font-size="13" textLength="61.433" font-family="Arial">Generated</text><text x="801" y="327.456" fill="#102A43" font-size="13" textLength="88.874" font-family="Arial">[Domain Event]</text></g><!--entity external_notification--><g class="entity" data-qualified-name="external_notification" id="ent0013" data-source-line="20"><rect x="759" y="400.641" width="181.833" height="49.047" fill="#F5A3D7" style="stroke:#486581;stroke-width:0.5;" rx="4.5" ry="4.5"/><text x="769" y="422.409" fill="#102A43" font-size="13" textLength="161.833" font-family="Arial">Notification Delivery Service</text><text x="769" y="436.933" fill="#102A43" font-size="13" textLength="101.867" font-family="Arial">[External System]</text></g><!--entity reporting--><g class="entity" data-qualified-name="reporting" id="ent0014" data-source-line="22"><rect x="556.5" y="284.141" width="199.232" height="49.047" fill="#EDF5FC" style="stroke:#486581;stroke-width:0.5;" rx="4.5" ry="4.5"/><text x="566.5" y="305.909" fill="#102A43" font-size="13" textLength="137.3" font-family="Arial">Reporting and Analytics</text><text x="566.5" y="320.433" fill="#102A43" font-size="13" textLength="179.232" font-family="Arial">[Bounded Context / Read Side]</text></g><!--entity view_reports--><g class="entity" data-qualified-name="view_reports" id="ent0015" data-source-line="23"><rect x="944" y="284.141" width="205.713" height="49.047" fill="#B9D98A" style="stroke:#486581;stroke-width:0.5;" rx="4.5" ry="4.5"/><text x="954" y="305.909" fill="#102A43" font-size="13" textLength="185.713" font-family="Arial">Operational Reports and Trends</text><text x="954" y="320.433" fill="#102A43" font-size="13" textLength="122.833" font-family="Arial">[View / Read Models]</text></g><!--link production to event_production--><g class="link" data-entity-1="ent0003" data-entity-2="ent0004" id="lnk16" data-source-line="25" data-link-type="dependency"><path d="M169.15,184.641 C180.81,184.641 187.78,184.641 199.34,184.641" style="stroke:#334E68;stroke-width:1.4;" fill="none" id="production-to-event_production"/><polygon points="204.34,184.641,195.34,180.641,199.34,184.641,195.34,188.641,204.34,184.641" fill="#334E68" style="stroke:#334E68;stroke-width:1.4;stroke-linejoin:miter;stroke-miterlimit:10;"/></g><!--link event_production to quality--><g class="link" data-entity-1="ent0004" data-entity-2="ent0005" id="lnk17" data-source-line="26" data-link-type="dependency"><path d="M355.72,184.641 C367.24,184.641 374.16,184.641 385.8,184.641" style="stroke:#334E68;stroke-width:1.4;" fill="none" id="event_production-to-quality"/><polygon points="390.8,184.641,381.8,180.641,385.8,184.641,381.8,188.641,390.8,184.641" fill="#334E68" style="stroke:#334E68;stroke-width:1.4;stroke-linejoin:miter;stroke-miterlimit:10;"/></g><!--link quality to event_deviation--><g class="link" data-entity-1="ent0005" data-entity-2="ent0006" id="lnk18" data-source-line="27" data-link-type="dependency"><path d="M555.13,184.641 C566.91,184.641 573.91,184.641 585.31,184.641" style="stroke:#334E68;stroke-width:1.4;" fill="none" id="quality-to-event_deviation"/><polygon points="590.31,184.641,581.31,180.641,585.31,184.641,581.31,188.641,590.31,184.641" fill="#334E68" style="stroke:#334E68;stroke-width:1.4;stroke-linejoin:miter;stroke-miterlimit:10;"/></g><!--link event_deviation to intelligence--><g class="link" data-entity-1="ent0006" data-entity-2="ent0007" id="lnk19" data-source-line="28" data-link-type="dependency"><path d="M721.64,184.641 C732.91,184.641 739.73,184.641 751.31,184.641" style="stroke:#334E68;stroke-width:1.4;" fill="none" id="event_deviation-to-intelligence"/><polygon points="756.31,184.641,747.31,180.641,751.31,184.641,747.31,188.641,756.31,184.641" fill="#334E68" style="stroke:#334E68;stroke-width:1.4;stroke-linejoin:miter;stroke-miterlimit:10;"/></g><!--link intelligence to event_anomaly--><g class="link" data-entity-1="ent0007" data-entity-2="ent0008" id="lnk20" data-source-line="29" data-link-type="dependency"><path d="M913.57,184.641 C925.09,184.641 931.91,184.641 943.26,184.641" style="stroke:#334E68;stroke-width:1.4;" fill="none" id="intelligence-to-event_anomaly"/><polygon points="948.26,184.641,939.26,180.641,943.26,184.641,939.26,188.641,948.26,184.641" fill="#334E68" style="stroke:#334E68;stroke-width:1.4;stroke-linejoin:miter;stroke-miterlimit:10;"/></g><!--link event_anomaly to maintenance--><g class="link" data-entity-1="ent0008" data-entity-2="ent0009" id="lnk21" data-source-line="30" data-link-type="dependency"><path d="M1089.56,184.641 C1100.66,184.641 1107.39,184.641 1119.21,184.641" style="stroke:#334E68;stroke-width:1.4;" fill="none" id="event_anomaly-to-maintenance"/><polygon points="1124.21,184.641,1115.21,180.641,1119.21,184.641,1115.21,188.641,1124.21,184.641" fill="#334E68" style="stroke:#334E68;stroke-width:1.4;stroke-linejoin:miter;stroke-miterlimit:10;"/></g><!--link maintenance to event_maintenance--><g class="link" data-entity-1="ent0009" data-entity-2="ent0010" id="lnk22" data-source-line="31" data-link-type="dependency"><path d="M1359.7,184.641 C1371.63,184.641 1378.53,184.641 1389.87,184.641" style="stroke:#334E68;stroke-width:1.4;" fill="none" id="maintenance-to-event_maintenance"/><polygon points="1394.87,184.641,1385.87,180.641,1389.87,184.641,1385.87,188.641,1394.87,184.641" fill="#334E68" style="stroke:#334E68;stroke-width:1.4;stroke-linejoin:miter;stroke-miterlimit:10;"/></g><!--link external_sensor to intelligence--><g class="link" data-entity-1="ent0011" data-entity-2="ent0007" id="lnk23" data-source-line="33" data-link-type="dependency"><path d="M835,92.851 C835,112.621 835,135.211 835,154.971" style="stroke:#334E68;stroke-width:1.4;" fill="none" id="external_sensor-to-intelligence"/><polygon points="835,159.971,839,150.971,835,154.971,831,150.971,835,159.971" fill="#334E68" style="stroke:#334E68;stroke-width:1.4;stroke-linejoin:miter;stroke-miterlimit:10;"/></g><!--link intelligence to event_alert--><g class="link" data-entity-1="ent0007" data-entity-2="ent0012" id="lnk24" data-source-line="34" data-link-type="dependency"><path d="M850,209.441 C850,228.661 850,250.461 850,271.351" style="stroke:#334E68;stroke-width:1.4;" fill="none" id="intelligence-to-event_alert"/><polygon points="850,276.351,854,267.351,850,271.351,846,267.351,850,276.351" fill="#334E68" style="stroke:#334E68;stroke-width:1.4;stroke-linejoin:miter;stroke-miterlimit:10;"/></g><!--link event_alert to external_notification--><g class="link" data-entity-1="ent0012" data-entity-2="ent0013" id="lnk25" data-source-line="35" data-link-type="dependency"><path d="M850,340.781 C850,359.641 850,378.101 850,395.491" style="stroke:#334E68;stroke-width:1.4;" fill="none" id="event_alert-to-external_notification"/><polygon points="850,400.491,854,391.491,850,395.491,846,391.491,850,400.491" fill="#334E68" style="stroke:#334E68;stroke-width:1.4;stroke-linejoin:miter;stroke-miterlimit:10;"/></g><!--link event_production to reporting--><g class="link" data-entity-1="ent0004" data-entity-2="ent0014" id="lnk26" data-source-line="37" data-link-type="dependency"><path d="M355.58,213.641 C442.55,213.641 573.5,213.641 573.5,213.641 C573.5,213.641 573.5,250.531 573.5,278.681" style="stroke:#334E68;stroke-width:1.4;" fill="none" id="event_production-to-reporting"/><polygon points="573.5,283.681,577.5,274.681,573.5,278.681,569.5,274.681,573.5,283.681" fill="#334E68" style="stroke:#334E68;stroke-width:1.4;stroke-linejoin:miter;stroke-miterlimit:10;"/></g><!--link event_deviation to reporting--><g class="link" data-entity-1="ent0006" data-entity-2="ent0014" id="lnk27" data-source-line="38" data-link-type="dependency"><path d="M656,216.901 C656,237.851 656,259.741 656,278.991" style="stroke:#334E68;stroke-width:1.4;" fill="none" id="event_deviation-to-reporting"/><polygon points="656,283.991,660,274.991,656,278.991,652,274.991,656,283.991" fill="#334E68" style="stroke:#334E68;stroke-width:1.4;stroke-linejoin:miter;stroke-miterlimit:10;"/></g><!--link event_anomaly to reporting--><g class="link" data-entity-1="ent0008" data-entity-2="ent0014" id="lnk28" data-source-line="39" data-link-type="dependency"><path d="M948.37,213.641 C862.45,213.641 728.75,213.641 728.75,213.641 C728.75,213.641 728.75,250.531 728.75,278.681" style="stroke:#334E68;stroke-width:1.4;" fill="none" id="event_anomaly-to-reporting"/><polygon points="728.75,283.681,732.75,274.681,728.75,278.681,724.75,274.681,728.75,283.681" fill="#334E68" style="stroke:#334E68;stroke-width:1.4;stroke-linejoin:miter;stroke-miterlimit:10;"/></g><!--link event_maintenance to reporting--><g class="link" data-entity-1="ent0010" data-entity-2="ent0014" id="lnk29" data-source-line="40" data-link-type="dependency"><path d="M1472,209.421 C1472,222.811 1472,236.641 1472,236.641 C1472,236.641 736,236.641 736,236.641 C736,236.641 736,258.031 736,278.861" style="stroke:#334E68;stroke-width:1.4;" fill="none" id="event_maintenance-to-reporting"/><polygon points="736,283.861,740,274.861,736,278.861,732,274.861,736,283.861" fill="#334E68" style="stroke:#334E68;stroke-width:1.4;stroke-linejoin:miter;stroke-miterlimit:10;"/></g><!--link reporting to view_reports--><g class="link" data-entity-1="ent0014" data-entity-2="ent0015" id="lnk30" data-source-line="41" data-link-type="dependency"><path d="M743.25,283.861 C743.25,270.471 743.25,256.641 743.25,256.641 C743.25,256.641 1019,256.641 1019,256.641 C1019,256.641 1019,265.471 1019,278.861" style="stroke:#334E68;stroke-width:1.4;" fill="none" id="reporting-to-view_reports"/><polygon points="1019,283.861,1023,274.861,1019,278.861,1015,274.861,1019,283.861" fill="#334E68" style="stroke:#334E68;stroke-width:1.4;stroke-linejoin:miter;stroke-miterlimit:10;"/></g><!--link commercial to iam--><!--link commercial to production--><!--link iam to quality--><g class="legend" data-source-line="47"><rect x="688.402" y="469.688" width="179.613" height="92.203" fill="none" style="stroke:#000;stroke-width:1;" rx="7.5" ry="7.5"/><text x="697.292" y="489.361" fill="#000" font-size="14" textLength="36.552" font-weight="700" font-family="Arial">Color</text><text x="741.623" y="489.361" fill="#000" font-size="14" textLength="54.462" font-weight="700" font-family="Arial">Element</text><rect x="693.402" y="492.328" width="44.331" height="15.641" fill="#EDF5FC" style="stroke:none;"/><text x="693.402" y="505.002" fill="#000" font-size="14" font-family="Arial"> </text><text x="741.623" y="505.002" fill="#000" font-size="14" textLength="108.192" font-family="Arial">Bounded Context</text><rect x="693.402" y="507.969" width="44.331" height="15.641" fill="#FFB26B" style="stroke:none;"/><text x="693.402" y="520.643" fill="#000" font-size="14" font-family="Arial"> </text><text x="741.623" y="520.643" fill="#000" font-size="14" textLength="87.931" font-family="Arial">Domain Event</text><rect x="693.402" y="523.609" width="44.331" height="15.641" fill="#F5A3D7" style="stroke:none;"/><text x="693.402" y="536.283" fill="#000" font-size="14" font-family="Arial"> </text><text x="741.623" y="536.283" fill="#000" font-size="14" textLength="101.924" font-family="Arial">External System</text><rect x="693.402" y="539.25" width="44.331" height="15.641" fill="#B9D98A" style="stroke:none;"/><text x="693.402" y="551.924" fill="#000" font-size="14" font-family="Arial"> </text><text x="741.623" y="551.924" fill="#000" font-size="14" textLength="117.503" font-family="Arial">View / Read Model</text><line x1="693.402" y1="476.688" x2="863.016" y2="476.688" style="stroke:#000;stroke-width:1;"/><line x1="693.402" y1="492.328" x2="863.016" y2="492.328" style="stroke:#000;stroke-width:1;"/><line x1="693.402" y1="507.969" x2="863.016" y2="507.969" style="stroke:#000;stroke-width:1;"/><line x1="693.402" y1="523.609" x2="863.016" y2="523.609" style="stroke:#000;stroke-width:1;"/><line x1="693.402" y1="539.25" x2="863.016" y2="539.25" style="stroke:#000;stroke-width:1;"/><line x1="693.402" y1="554.891" x2="863.016" y2="554.891" style="stroke:#000;stroke-width:1;"/><line x1="693.402" y1="476.688" x2="693.402" y2="554.891" style="stroke:#000;stroke-width:1;"/><line x1="737.733" y1="476.688" x2="737.733" y2="554.891" style="stroke:#000;stroke-width:1;"/><line x1="863.016" y1="476.688" x2="863.016" y2="554.891" style="stroke:#000;stroke-width:1;"/></g><?plantuml-src ZLLXRzCm4FtkNs6spm49D60IJ6gNTff46Qo0XDPfCl4ji-JOnN6xLTgFvnmxdfkaBT-i-DsxvxjxbrT25NB5WS8QbCrggqqbL8c7ZOJNorKb2R72Ig0pBOM29vhH76fHgkmBXaWwSN5q7kBerHhCMi0ZiNf9hQP_jBMwebmOAApGYX1tOAf4ngDpNLLW2i6GHfMiX0gv5kfch5UA0wVdMbbuihT7bDMqU04VJ_BfoVGyfRha62hiXZB5wQWeeAxfZAa3d89LaInb-sOqNpLw_uDa-G8U49PGNQfxh19pvuMwXa8Rn_M6_bnoPe4ZVwuh9fIlQUtPcxxSfJccq_7Rz-Cqn_SLa-tRVmkGNg3HSfValo5WG6_BfOsdMgWSreBv1pH5lXSzhQbK7k43Ig-MO9fBxE8b2f9IbA0AsDcW13EaDkKRALGaDqwmHSHUaSnZXoIEwXfiKyePS-aLSxaFZq6Le0UKfcHjx_TrV8ikg4pvheLJ9QIaSr0rTki2P-YHuVDl9ayMZAl8V5DRg09h-7XNU_Znz6JqBl-mivWI33xr0fJxjh-M3ZfKoQ_Q3KlXXo47AN0tR50kBeYcu_jrgZIwLRjL0LXgOztIQJoFCHihYhhV7xJODJ1EvuA3Js9Yw86PyZdg9iCF0uex-b-utrhEcUOWG-FSthip8U9uV9gVVXmHabWtCw9yiDbPpzIav_883LObhMKx7D5jfEk-24mzHBOCrU4AfY3R5ecWP299EfqTbXH6kbENSVsezciAY6IsI3fdyNveJiX08GC-jhnVg1s8M80Tzrirw65UHYpM9vqFGfB_MNRp83ZkrjlOCbODteSioU2uFrZtkXqP8W5hoiC_c53w_1aj8R4DU9Z8PflHP_VzKx316NscNVC4WBUt0wHx8DuszdIt7LEt0Ey61-Yv1o6eqclz1m00?></g></svg>